<svg width="87" height="103" viewBox="0 0 87 103" fill="none" xmlns="http://www.w3.org/2000/svg">
<path d="M31.2787 5.39534C29.5756 5.22726 29.1971 4.83507 29.1656 3.40639C29.1656 3.09825 29.1656 2.7901 29.1656 2.45394C29.1971 1.44546 29.7964 0.88519 30.9318 0.857177C31.9095 0.829164 32.9188 0.857177 33.8965 0.857177C41.182 0.857177 48.436 0.857177 55.7216 0.857177C56.6047 0.857177 57.4247 0.941217 57.8347 1.78162C58.2447 2.62202 58.0555 4.49891 57.4563 4.91911C57.0463 5.19925 56.4786 5.3113 55.8478 5.56342C55.8478 5.75951 55.8478 6.06766 55.8478 6.37581C55.8478 17.9453 55.8478 29.5149 55.8478 41.0844C55.8478 41.6166 56.0055 42.2049 56.2893 42.6811C65.7511 58.2566 75.2128 73.832 84.643 89.4074C85.4315 90.696 86.1254 92.0687 86.5039 93.4694C87.4185 96.859 85.6523 99.9124 81.9307 101.621C80.1329 102.462 78.2091 102.91 76.1275 102.91C54.4285 102.91 32.698 102.91 10.999 102.91C6.39429 102.91 1.97881 100.024 0.906481 96.4108C0.307236 94.3658 0.685703 92.4049 1.78957 90.584C4.69118 85.7377 7.62432 80.9194 10.5575 76.1011C17.3699 64.8677 24.214 53.6624 30.9949 42.429C31.1841 42.1489 31.2787 41.7847 31.2787 41.4485C31.2787 29.5989 31.2787 17.7492 31.2787 5.89958C31.2787 5.75951 31.2787 5.59143 31.2472 5.36733L31.2787 5.39534ZM28.4087 54.4467C28.4087 54.4467 28.1248 54.8669 27.9356 55.1751C24.8132 60.2735 21.6908 65.372 18.6 70.4424C14.9099 76.4652 11.2198 82.4881 7.52971 88.511C6.64661 89.9677 6.04738 91.5084 6.23661 93.1892C6.67816 96.831 10.7782 99.9685 15.1937 99.9685C34.4642 99.9685 53.7662 99.9685 73.0366 99.9685C74.9605 99.9685 76.7267 99.5202 78.3983 98.6798C80.7322 97.4753 82.2146 95.7384 82.3092 93.2453C82.3723 91.6765 81.8361 90.2198 81.0161 88.8472C77.0737 82.152 73.0997 75.4848 69.1573 68.7896C65.8773 63.2429 62.5971 57.6963 59.3171 52.1496C57.5824 49.2082 55.8793 48.676 52.5362 50.2167C50.833 51.0011 49.2561 51.9255 47.5845 52.7659C43.9575 54.6148 40.1412 55.8754 35.915 55.5673C33.4865 55.3992 31.058 54.8389 28.4402 54.4467H28.4087ZM48.0576 22.7076C48.0576 26.7135 48.0576 30.7194 48.0576 34.7533C48.0576 35.8739 48.0576 37.0224 48.0576 38.143C48.0576 39.1514 48.783 39.7957 49.7922 39.7957C50.8015 39.7957 51.4954 39.1514 51.59 38.171C51.59 38.0029 51.59 37.8628 51.59 37.6947C51.59 27.722 51.59 17.7492 51.59 7.77648C51.59 7.4123 51.6215 6.90806 51.4007 6.68396C50.9592 6.26376 50.3284 5.78753 49.7607 5.75952C49.2561 5.75952 48.6253 6.26376 48.2153 6.65594C47.9945 6.88005 48.026 7.35627 48.026 7.74846C48.026 12.7348 48.026 17.7212 48.026 22.7076H48.0576Z" fill="white"/>
</svg>
