<svg width="56" height="56" viewBox="0 0 56 56" fill="none" xmlns="http://www.w3.org/2000/svg">
<path d="M45.5 17.0625H38.0625V16.1875C38.0625 10.6312 33.5562 6.125 28 6.125C22.4438 6.125 17.9375 10.6312 17.9375 16.1875V17.0625H10.5C9.53203 17.0625 8.75 17.8445 8.75 18.8125V48.125C8.75 49.093 9.53203 49.875 10.5 49.875H45.5C46.468 49.875 47.25 49.093 47.25 48.125V18.8125C47.25 17.8445 46.468 17.0625 45.5 17.0625ZM34.125 17.0625H21.875V16.1875C21.875 12.8023 24.6148 10.0625 28 10.0625C31.3852 10.0625 34.125 12.8023 34.125 16.1875V17.0625Z" fill="#381134"/>
</svg>
