<svg width="32" height="39" viewBox="0 0 32 39" fill="none" xmlns="http://www.w3.org/2000/svg">
<path d="M0.0299988 34.39C0.0299988 34.39 0.119999 34.36 0.139999 34.33C0.849999 32.98 1.54 31.61 2.28 30.27C4.37 26.47 6.48 22.68 8.57 18.88C9.27 17.61 9.97 16.33 10.66 15.05C10.76 14.87 10.82 14.65 10.82 14.45C10.83 10.76 10.83 7.06 10.82 3.37C10.82 3.24 10.74 3.07 10.64 2.99C10.33 2.71 10.18 2.38 10.16 1.96C10.14 1.31 10.2 0.71 10.73 0.25C10.82 0.17 10.89 0.08 10.97 0C14.28 0 17.6 0 20.91 0C20.98 0.08 21.04 0.17 21.12 0.24C21.92 0.9 21.95 2.35 21.17 3.03C21.1 3.09 21.05 3.21 21.05 3.31C21.05 7.05 21.05 10.78 21.05 14.52C21.05 14.69 21.11 14.87 21.19 15.02C23.56 19.33 25.93 23.63 28.31 27.94C29.35 29.82 30.39 31.7 31.42 33.58C31.53 33.78 31.6 34.01 31.7 34.22C31.73 34.29 31.8 34.34 31.85 34.4V35.95C31.8 36.01 31.74 36.06 31.72 36.13C31.27 37.43 30.35 38.24 29.1 38.74C29.02 38.77 28.96 38.85 28.89 38.91H2.96C2.89 38.85 2.83999 38.77 2.75999 38.74C1.51999 38.25 0.620002 37.42 0.150002 36.14C0.120002 36.07 0.05 36.01 0 35.95C0 35.43 0 34.92 0 34.4L0.0299988 34.39ZM12.05 2.64C12.05 2.72 12.06 2.77 12.06 2.83C12.06 7.06 12.06 11.29 12.06 15.52C12.06 15.64 12.03 15.76 11.97 15.87C9.81 19.88 7.65 23.88 5.49 27.89C4.56 29.61 3.63 31.33 2.71 33.06C2.36 33.71 2.24 34.41 2.43 35.14C2.77 36.43 4.17 37.46 5.63 37.46C12.51 37.46 19.4 37.46 26.28 37.46C26.93 37.46 27.54 37.3 28.12 37C29.3 36.38 29.86 35.3 29.57 34.09C29.45 33.59 29.23 33.1 28.98 32.64C25.99 27.08 22.98 21.52 19.99 15.96C19.9 15.79 19.85 15.58 19.85 15.39C19.85 11.26 19.85 7.13 19.85 3C19.85 2.89 19.85 2.78 19.85 2.71C20.05 2.62 20.23 2.58 20.36 2.48C20.55 2.34 20.61 1.66 20.48 1.36C20.35 1.06 20.09 1.03 19.81 1.03C17.5 1.03 15.2 1.03 12.89 1.03C12.58 1.03 12.26 1.03 11.95 1.03C11.59 1.04 11.4 1.24 11.39 1.6C11.39 1.71 11.39 1.82 11.39 1.94C11.39 2.45 11.51 2.59 12.06 2.65L12.05 2.64Z" fill="#5E1D57"/>
<path d="M12.05 2.64001C11.51 2.58001 11.39 2.44001 11.38 1.93001C11.38 1.82001 11.38 1.71001 11.38 1.59001C11.39 1.23001 11.58 1.03001 11.94 1.02001C12.25 1.01001 12.57 1.02001 12.88 1.02001C15.19 1.02001 17.49 1.02001 19.8 1.02001C20.08 1.02001 20.34 1.05001 20.47 1.35001C20.6 1.65001 20.54 2.32001 20.35 2.47001C20.22 2.57001 20.04 2.61001 19.84 2.70001C19.84 2.77001 19.84 2.88001 19.84 2.99001C19.84 7.12001 19.84 11.25 19.84 15.38C19.84 15.57 19.89 15.78 19.98 15.95C22.98 21.51 25.98 27.07 28.97 32.63C29.22 33.09 29.44 33.58 29.56 34.08C29.85 35.29 29.29 36.38 28.11 36.99C27.54 37.29 26.93 37.45 26.27 37.45C19.39 37.45 12.5 37.45 5.61999 37.45C4.15999 37.45 2.75999 36.42 2.41999 35.13C2.22999 34.4 2.34999 33.7 2.69999 33.05C3.61999 31.32 4.54999 29.6 5.47999 27.88C7.63999 23.87 9.80999 19.87 11.96 15.86C12.02 15.76 12.05 15.63 12.05 15.51C12.05 11.28 12.05 7.05001 12.05 2.82001C12.05 2.77001 12.05 2.71001 12.04 2.63001L12.05 2.64001ZM11.14 20.15C11.14 20.15 11.05 20.3 10.99 20.41C9.99999 22.23 9.00999 24.05 8.02999 25.86C6.85999 28.01 5.68999 30.16 4.51999 32.31C4.23999 32.83 4.04999 33.38 4.10999 33.98C4.24999 35.28 5.54999 36.4 6.94999 36.4C13.06 36.4 19.18 36.4 25.29 36.4C25.9 36.4 26.46 36.24 26.99 35.94C27.73 35.51 28.2 34.89 28.23 34C28.25 33.44 28.08 32.92 27.82 32.43C26.57 30.04 25.31 27.66 24.06 25.27C23.02 23.29 21.98 21.31 20.94 19.33C20.39 18.28 19.85 18.09 18.79 18.64C18.25 18.92 17.75 19.25 17.22 19.55C16.07 20.21 14.86 20.66 13.52 20.55C12.75 20.49 11.98 20.29 11.15 20.15H11.14ZM17.37 8.82001C17.37 10.25 17.37 11.68 17.37 13.12C17.37 13.52 17.37 13.93 17.37 14.33C17.37 14.69 17.6 14.92 17.92 14.92C18.24 14.92 18.46 14.69 18.49 14.34C18.49 14.28 18.49 14.23 18.49 14.17C18.49 10.61 18.49 7.05001 18.49 3.49001C18.49 3.36001 18.5 3.18001 18.43 3.10001C18.29 2.95001 18.09 2.78001 17.91 2.77001C17.75 2.77001 17.55 2.95001 17.42 3.09001C17.35 3.17001 17.36 3.34001 17.36 3.48001C17.36 5.26001 17.36 7.04001 17.36 8.82001H17.37Z" fill="white"/>
<path d="M11.14 20.15C11.97 20.3 12.73 20.49 13.51 20.55C14.85 20.66 16.06 20.21 17.21 19.55C17.73 19.25 18.24 18.92 18.78 18.64C19.83 18.1 20.38 18.29 20.93 19.33C21.97 21.31 23.01 23.29 24.05 25.27C25.3 27.66 26.56 30.04 27.81 32.43C28.07 32.92 28.24 33.44 28.22 34C28.19 34.89 27.72 35.51 26.98 35.94C26.46 36.24 25.89 36.4 25.28 36.4C19.17 36.4 13.05 36.4 6.94002 36.4C5.55002 36.4 4.24002 35.28 4.10002 33.98C4.04002 33.38 4.22001 32.83 4.51001 32.31C5.68001 30.16 6.85002 28.01 8.02002 25.86C9.01002 24.04 10 22.22 10.98 20.41C11.04 20.3 11.1 20.2 11.13 20.15H11.14ZM12.83 27.43C12.18 28.72 12.28 29.74 13.13 30.47C13.93 31.16 15.03 31.21 15.89 30.59C16.7 30.01 17.01 28.91 16.63 27.99C16.38 27.38 15.93 26.96 15.31 26.74C14.7 26.52 14.09 26.61 13.48 26.89C13.77 26.11 13.65 25.52 13.15 25.15C12.67 24.8 12.02 24.8 11.56 25.15C11.1 25.51 10.94 26.12 11.15 26.66C11.41 27.3 11.91 27.53 12.83 27.43ZM18.79 23.65C18.79 23.22 18.45 22.88 18.03 22.88C17.61 22.88 17.26 23.22 17.26 23.64C17.26 24.06 17.6 24.4 18.02 24.4C18.46 24.4 18.78 24.08 18.78 23.65H18.79Z" fill="#5E1D57"/>
<path d="M17.37 8.80999C17.37 7.02999 17.37 5.24999 17.37 3.46999C17.37 3.33999 17.36 3.16999 17.43 3.07999C17.56 2.93999 17.75 2.74999 17.92 2.75999C18.1 2.75999 18.3 2.93999 18.44 3.08999C18.51 3.16999 18.5 3.33999 18.5 3.47999C18.5 7.03999 18.5 10.6 18.5 14.16C18.5 14.22 18.5 14.27 18.5 14.33C18.48 14.68 18.25 14.91 17.93 14.91C17.61 14.91 17.39 14.68 17.38 14.32C17.38 13.92 17.38 13.51 17.38 13.11C17.38 11.68 17.38 10.25 17.38 8.80999H17.37Z" fill="#5E1D57"/>
<path d="M12.83 27.42C11.91 27.52 11.41 27.29 11.15 26.65C10.93 26.12 11.1 25.51 11.56 25.14C12.02 24.78 12.67 24.78 13.15 25.14C13.66 25.52 13.78 26.1 13.48 26.88C14.09 26.59 14.7 26.51 15.31 26.73C15.93 26.95 16.37 27.37 16.63 27.98C17.01 28.9 16.7 30 15.89 30.58C15.04 31.19 13.93 31.15 13.13 30.46C12.28 29.73 12.18 28.71 12.83 27.42Z" fill="white"/>
<path d="M18.79 23.64C18.79 24.07 18.46 24.39 18.03 24.39C17.6 24.39 17.26 24.05 17.27 23.63C17.27 23.21 17.62 22.87 18.04 22.87C18.46 22.87 18.8 23.21 18.8 23.64H18.79Z" fill="white"/>
</svg>
