<?xml version="1.0" encoding="UTF-8"?>
<svg id="Capa_1" data-name="Capa 1" xmlns="http://www.w3.org/2000/svg" viewBox="0 0 590.04 70.25">
  <defs>
    <style>
      .cls-1 {
        fill: #fff;
      }

      .cls-2 {
        fill: #1d1d1b;
      }
    </style>
  </defs>
  <g id="logo">
    <g>
      <path class="cls-2" d="M9.01,62.83c.28-2.68,1.72-5.58,4.32-8.68v-15.13l-5.28,3.06v9.31c0,1.29-.48,2.29-1.43,3.02l-5.45,4.11-.17-.17c.78-1.06,1.17-2.46,1.17-4.19v-2.93l-1.01,.59-.17-.13c.78-.87,1.17-1.98,1.17-3.35V26.57c0-1.59-.45-2.99-1.34-4.19l.17-.17c1.17,1.01,2.54,2,4.11,2.98l1.51-.8c.31-.17,.74-.4,1.3-.69,.56-.29,1.05-.57,1.47-.82v.17c-.89,.95-1.34,2.05-1.34,3.31v12.24l5.28-3.06v-8.64c0-.78-.11-1.47-.34-2.07-.22-.6-.56-1.18-1.01-1.74v-.21l2.31,1.51c.75,.42,1.22,.7,1.38,.84,1.17-.78,2.12-1.5,2.85-2.16,.73-.66,1.33-1.49,1.8-2.49l.17,.17c-.87,1.93-1.3,4.02-1.3,6.29v25.44c0,1.59,.39,2.88,1.17,3.86l-.17,.17c-.11-.08-.99-.64-2.64-1.68-.2-.14-.49-.32-.88-.54-4.47,3.35-6.97,6.26-7.5,8.72l-.17-.17Z"/>
      <path class="cls-2" d="M31.19,59.23c.06-.17,.21-.64,.46-1.42,.28-.87,.48-1.56,.61-2.1,.13-.53,.19-1.03,.19-1.51v-1.05l-3.4,5.45-5.66-4.69c-.39-.34-.69-.71-.9-1.11-.21-.4-.31-.91-.31-1.53v-12.87c0-.84,.63-1.93,1.89-3.27,1.26-1.34,2.92-2.77,4.99-4.28l.17,.17c-.78,1.06-1.17,2.46-1.17,4.19v15.05c0,.56,.24,1.05,.73,1.47,.49,.42,1.25,.95,2.28,1.59l1.38-2.1v-12.87c0-.78-.22-1.4-.65-1.87-.43-.46-1.13-.9-2.08-1.32l2.68-4.32c.2,.11,.83,.49,1.91,1.13,1.08,.64,2.01,1.38,2.81,2.2,.8,.82,1.19,1.61,1.19,2.37v14.13c0,.48-.17,.9-.5,1.28-.34,.38-.89,.9-1.68,1.57-1.09,.89-2.02,1.77-2.79,2.62-.77,.85-1.43,1.94-1.99,3.25l-.17-.17Z"/>
      <path class="cls-2" d="M50.3,59.23c.06-.17,.21-.64,.46-1.42,.28-.87,.48-1.56,.61-2.1,.13-.53,.19-1.03,.19-1.51v-1.05l-3.4,5.45-5.66-4.69c-.39-.34-.69-.71-.9-1.11-.21-.4-.31-.91-.31-1.53v-12.87c0-.84,.63-1.93,1.89-3.27,1.26-1.34,2.92-2.77,4.99-4.28l.17,.17c-.78,1.06-1.17,2.46-1.17,4.19v15.05c0,.56,.24,1.05,.73,1.47,.49,.42,1.25,.95,2.28,1.59l1.38-2.1v-12.87c0-.78-.22-1.4-.65-1.87-.43-.46-1.13-.9-2.08-1.32l2.68-4.32c.2,.11,.83,.49,1.91,1.13,1.08,.64,2.01,1.38,2.81,2.2,.8,.82,1.19,1.61,1.19,2.37v14.13c0,.48-.17,.9-.5,1.28-.34,.38-.89,.9-1.68,1.57-1.09,.89-2.02,1.77-2.79,2.62-.77,.85-1.43,1.94-1.99,3.25l-.17-.17Z"/>
      <path class="cls-2" d="M68.35,61.95c-1.13-1.43-2.44-2.76-3.92-4-1.48-1.24-2.82-2.17-4.02-2.79v-18.7c0-.95,.44-1.81,1.32-2.58,.88-.77,2.08-1.59,3.58-2.45,.14-.08,.3-.17,.48-.27,.18-.1,.36-.2,.52-.31v-2.39l4.36,9.93v-7.55c0-.78-.52-2.19-1.55-4.23-1.03-2.04-1.84-3.45-2.43-4.23l.17-.17c1.98,2.29,3.63,4,4.95,5.14,1.31,1.13,2.89,2.2,4.74,3.21v21.59c0,.7-.28,1.33-.84,1.89-.56,.56-1.43,1.22-2.6,1.97-.81,.53-1.47,.99-1.99,1.38-.52,.39-.96,.82-1.32,1.3l-.13-.17,.38-1.01c.22-.53,.38-.98,.48-1.34,.1-.36,.15-.81,.15-1.34v-14.08l-2.01-5.2c-.78,.59-1.38,1.1-1.78,1.53-.41,.43-.61,.92-.61,1.45v16.35c1.29,1.57,2.33,3.21,3.12,4.95s1.19,3.73,1.19,5.99h-.17c-.25-1.15-.94-2.43-2.07-3.86Z"/>
      <path class="cls-2" d="M78.64,58.35c.42-.56,.72-1.17,.9-1.82,.18-.66,.27-1.42,.27-2.28v-17.14c0-.81,.29-1.49,.88-2.05,.59-.56,1.56-1.24,2.93-2.05,1.79-1.17,2.86-1.89,3.23-2.14l.17,.17c-.89,1.2-1.34,2.6-1.34,4.19v17.4c0,.56-.29,1.11-.88,1.66s-1.59,1.28-3.02,2.2c-1.26,.84-2.25,1.52-2.98,2.05l-.17-.17Zm.75-31.69l3.73-3.77,3.69,3.69-3.77,3.73-3.65-3.65Z"/>
      <path class="cls-2" d="M89.29,52.77c-.67-.5-1.01-1.01-1.01-1.51v-12.87c0-.56,.15-1.05,.44-1.49,.29-.43,.68-.79,1.15-1.07l8.26-4.99,4.95,8.09-8.93,7.71v2.26c0,.45,.31,.9,.92,1.34l4.32,3.23,2.81-3.06,.75,.96-5.95,7.13-7.71-5.74Zm9.01-11.74l-3.77-6.41c-.25,.11-.38,.31-.38,.59v9.39l4.15-3.56Z"/>
      <path class="cls-2" d="M115,63.71c-.43-.33-.8-.63-1.09-.88-.29-.25-.51-.43-.65-.55-1.62-1.48-3.12-2.64-4.51-3.48s-2.93-1.26-4.63-1.26l-.13-.25c.87-.56,1.68-.92,2.43-1.09V29.13c.59-.64,1.37-1.66,2.35-3.06,.84-1.2,1.63-2.26,2.39-3.16s1.58-1.73,2.47-2.45v.21c-.89,1.2-1.34,2.58-1.34,4.15v26.32c0,.98-.36,1.92-1.09,2.83-.73,.91-1.59,1.64-2.6,2.2,1.34,.11,2.52,.41,3.52,.88,1.01,.48,2.28,1.22,3.81,2.22,.14,.08,.71,.45,1.7,1.09,.99,.64,2.09,1.26,3.29,1.84,.39,.17,.74,.25,1.05,.25,.34,0,.75-.1,1.26-.29l.08,.08c-.59,.64-1.48,1.21-2.68,1.7-1.2,.49-2.29,.73-3.27,.73-.5,0-.92-.08-1.26-.25-.31-.14-.68-.38-1.11-.71Z"/>
    </g>
    <g>
      <path d="M114.54,52.66s.09-.03,.11-.06c.71-1.35,1.4-2.72,2.14-4.06,2.09-3.8,4.2-7.59,6.29-11.39,.7-1.27,1.4-2.55,2.09-3.83,.1-.18,.16-.4,.16-.6,.01-3.69,.01-7.39,0-11.08,0-.13-.08-.3-.18-.38-.31-.28-.46-.61-.48-1.03-.02-.65,.04-1.25,.57-1.71,.09-.08,.16-.17,.24-.25,3.31,0,6.63,0,9.94,0,.07,.08,.13,.17,.21,.24,.8,.66,.83,2.11,.05,2.79-.07,.06-.12,.18-.12,.28,0,3.74,0,7.47,0,11.21,0,.17,.06,.35,.14,.5,2.37,4.31,4.74,8.61,7.12,12.92,1.04,1.88,2.08,3.76,3.11,5.64,.11,.2,.18,.43,.28,.64,.03,.07,.1,.12,.15,.18v1.55c-.05,.06-.11,.11-.13,.18-.45,1.3-1.37,2.11-2.62,2.61-.08,.03-.14,.11-.21,.17h-25.93c-.07-.06-.12-.14-.2-.17-1.24-.49-2.14-1.32-2.61-2.6-.03-.07-.1-.13-.15-.19,0-.52,0-1.03,0-1.55Zm12.02-31.75c0,.08,.01,.13,.01,.19,0,4.23,0,8.46,0,12.69,0,.12-.03,.24-.09,.35-2.16,4.01-4.32,8.01-6.48,12.02-.93,1.72-1.86,3.44-2.78,5.17-.35,.65-.47,1.35-.28,2.08,.34,1.29,1.74,2.32,3.2,2.32,6.88,0,13.77,0,20.65,0,.65,0,1.26-.16,1.84-.46,1.18-.62,1.74-1.7,1.45-2.91-.12-.5-.34-.99-.59-1.45-2.99-5.56-6-11.12-8.99-16.68-.09-.17-.14-.38-.14-.57,0-4.13,0-8.26,0-12.39,0-.11,0-.22,0-.29,.2-.09,.38-.13,.51-.23,.19-.14,.25-.82,.12-1.12-.13-.3-.39-.33-.67-.33-2.31,0-4.61,0-6.92,0-.31,0-.63,0-.94,0-.36,.01-.55,.21-.56,.57,0,.11,0,.22,0,.34,0,.51,.12,.65,.67,.71Z"/>
      <path class="cls-1" d="M126.56,20.91c-.54-.06-.66-.2-.67-.71,0-.11,0-.22,0-.34,.01-.36,.2-.56,.56-.57,.31-.01,.63,0,.94,0,2.31,0,4.61,0,6.92,0,.28,0,.54,.03,.67,.33,.13,.3,.07,.97-.12,1.12-.13,.1-.31,.14-.51,.23,0,.07,0,.18,0,.29,0,4.13,0,8.26,0,12.39,0,.19,.05,.4,.14,.57,3,5.56,6,11.12,8.99,16.68,.25,.46,.47,.95,.59,1.45,.29,1.21-.27,2.3-1.45,2.91-.57,.3-1.18,.46-1.84,.46-6.88,0-13.77,0-20.65,0-1.46,0-2.86-1.03-3.2-2.32-.19-.73-.07-1.43,.28-2.08,.92-1.73,1.85-3.45,2.78-5.17,2.16-4.01,4.33-8.01,6.48-12.02,.06-.1,.09-.23,.09-.35,0-4.23,0-8.46,0-12.69,0-.05,0-.11-.01-.19Zm-.91,17.51s-.09,.15-.15,.26c-.99,1.82-1.98,3.64-2.96,5.45-1.17,2.15-2.34,4.3-3.51,6.45-.28,.52-.47,1.07-.41,1.67,.14,1.3,1.44,2.42,2.84,2.42,6.11,0,12.23,0,18.34,0,.61,0,1.17-.16,1.7-.46,.74-.43,1.21-1.05,1.24-1.94,.02-.56-.15-1.08-.41-1.57-1.25-2.39-2.51-4.77-3.76-7.16-1.04-1.98-2.08-3.96-3.12-5.94-.55-1.05-1.09-1.24-2.15-.69-.54,.28-1.04,.61-1.57,.91-1.15,.66-2.36,1.11-3.7,1-.77-.06-1.54-.26-2.37-.4Zm6.23-11.33c0,1.43,0,2.86,0,4.3,0,.4,0,.81,0,1.21,0,.36,.23,.59,.55,.59,.32,0,.54-.23,.57-.58,0-.06,0-.11,0-.17,0-3.56,0-7.12,0-10.68,0-.13,.01-.31-.06-.39-.14-.15-.34-.32-.52-.33-.16,0-.36,.18-.49,.32-.07,.08-.06,.25-.06,.39,0,1.78,0,3.56,0,5.34Z"/>
      <path d="M125.65,38.42c.83,.15,1.59,.34,2.37,.4,1.34,.11,2.55-.34,3.7-1,.52-.3,1.03-.63,1.57-.91,1.05-.54,1.6-.35,2.15,.69,1.04,1.98,2.08,3.96,3.12,5.94,1.25,2.39,2.51,4.77,3.76,7.16,.26,.49,.43,1.01,.41,1.57-.03,.89-.5,1.51-1.24,1.94-.52,.3-1.09,.46-1.7,.46-6.11,0-12.23,0-18.34,0-1.39,0-2.7-1.12-2.84-2.42-.06-.6,.12-1.15,.41-1.67,1.17-2.15,2.34-4.3,3.51-6.45,.99-1.82,1.98-3.64,2.96-5.45,.06-.11,.12-.21,.15-.26Zm1.69,7.28c-.65,1.29-.55,2.31,.3,3.04,.8,.69,1.9,.74,2.76,.12,.81-.58,1.12-1.68,.74-2.6-.25-.61-.7-1.03-1.32-1.25-.61-.22-1.22-.13-1.83,.15,.29-.78,.17-1.37-.33-1.74-.48-.35-1.13-.35-1.59,0-.46,.36-.62,.97-.41,1.51,.26,.64,.76,.87,1.68,.77Zm5.96-3.78c0-.43-.34-.77-.76-.77-.42,0-.77,.34-.77,.76,0,.42,.34,.76,.76,.76,.44,0,.76-.32,.76-.75Z"/>
      <path d="M131.88,27.08c0-1.78,0-3.56,0-5.34,0-.13-.01-.3,.06-.39,.13-.14,.32-.33,.49-.32,.18,0,.38,.18,.52,.33,.07,.08,.06,.25,.06,.39,0,3.56,0,7.12,0,10.68,0,.06,0,.11,0,.17-.02,.35-.25,.58-.57,.58-.32,0-.54-.23-.55-.59,0-.4,0-.81,0-1.21,0-1.43,0-2.86,0-4.3Z"/>
      <path class="cls-1" d="M127.34,45.69c-.92,.1-1.42-.13-1.68-.77-.22-.53-.05-1.14,.41-1.51,.46-.36,1.11-.36,1.59,0,.51,.38,.63,.96,.33,1.74,.61-.29,1.22-.37,1.83-.15,.62,.22,1.06,.64,1.32,1.25,.38,.92,.07,2.02-.74,2.6-.85,.61-1.96,.57-2.76-.12-.85-.73-.95-1.75-.3-3.04Z"/>
      <path class="cls-1" d="M133.3,41.91c0,.43-.33,.75-.76,.75-.43,0-.77-.34-.76-.76,0-.42,.35-.76,.77-.76,.42,0,.76,.34,.76,.77Z"/>
    </g>
    <path class="cls-2" d="M152.62,63.38c.5-1.15,1.2-2.42,2.09-3.81-1.89-1.12-3.34-2.17-4.33-3.14l-.93,.6c-.35,.2-.9,.55-1.64,1.05l-.15-.15c.7-.87,1.05-2.03,1.05-3.47v-20.77c0-1.25-.11-2.3-.34-3.18-.22-.87-.63-1.64-1.23-2.32l.15-.15c.62,.2,1.36,.49,2.2,.88,.85,.39,1.62,.79,2.32,1.21l.71-.45c1.47-.92,2.34-1.47,2.62-1.64v.15c-.8,1-1.2,2.14-1.2,3.44v.97l3.92-6.02-.04,1.46c1.27,.77,2.47,1.68,3.59,2.71,1.12,1.03,1.68,1.92,1.68,2.67v3.62c0,.4-.24,.88-.73,1.46-.49,.57-1.25,1.33-2.3,2.28l-1.38,1.27,3.66,2.5c.6,.4,.9,1.07,.9,2.02v8.82c-1.77,.65-3.69,1.74-5.75,3.27s-3.64,3.16-4.71,4.88l-.15-.15Zm5.23-22.53v-5.98c0-.5-.19-.95-.58-1.35-.39-.4-.99-.9-1.81-1.49l-1.53,2.62v9.98l3.92-3.77Zm-1.08,15.95c.67-.9,1.08-1.46,1.23-1.68v-6.46c0-.32-.03-.58-.09-.77-.06-.19-.19-.35-.39-.5l-2.62-1.91-.97,.9v9.04c0,.77,.1,1.49,.3,2.15,.2,.66,.44,1.21,.71,1.66,.5-.72,1.11-1.53,1.83-2.43Z"/>
  </g>
</svg>