<svg width="101" height="110" viewBox="0 0 101 110" fill="none" xmlns="http://www.w3.org/2000/svg">
<path d="M0.642221 96.838C0.642221 96.838 0.926076 96.7539 0.989154 96.6699C3.22844 92.8881 5.40464 89.0502 7.73854 85.2965C14.3302 74.6514 20.985 64.0343 27.5767 53.3892C29.7844 49.8315 31.9922 46.2458 34.1684 42.6601C34.4838 42.1559 34.673 41.5396 34.673 40.9793C34.7046 30.6424 34.7046 20.2774 34.673 9.9405C34.673 9.57633 34.4207 9.1001 34.1053 8.876C33.1276 8.09162 32.6545 7.16718 32.5914 5.99062C32.5283 4.16975 32.7176 2.48895 34.3892 1.20033C34.673 0.976227 34.8938 0.724107 35.1461 0.5C45.5856 0.5 56.0566 0.5 66.4961 0.5C66.7168 0.724107 66.9061 0.976227 67.1584 1.17232C69.6815 3.0212 69.7761 7.08314 67.3161 8.98805C67.0953 9.15613 66.9376 9.49229 66.9376 9.77242C66.9376 20.2494 66.9376 30.6984 66.9376 41.1754C66.9376 41.6516 67.1268 42.1559 67.3792 42.5761C74.8539 54.6498 82.3288 66.6956 89.8351 78.7693C93.1152 84.0359 96.3952 89.3024 99.6437 94.5689C99.9907 95.1291 100.211 95.7735 100.527 96.3617C100.621 96.5578 100.842 96.6979 101 96.866V101.208C100.842 101.376 100.653 101.516 100.59 101.712C99.1707 105.354 96.2691 107.623 92.3267 109.024C92.0744 109.108 91.8851 109.332 91.6643 109.5H9.88321C9.66243 109.332 9.50472 109.108 9.25241 109.024C5.34155 107.651 2.50304 105.326 1.0207 101.74C0.926083 101.544 0.705303 101.376 0.547607 101.208C0.547607 99.7514 0.547607 98.3227 0.547607 96.866L0.642221 96.838ZM38.5523 7.89553C38.5523 8.11963 38.5839 8.2597 38.5839 8.42778C38.5839 20.2774 38.5839 32.1271 38.5839 43.9767C38.5839 44.3129 38.4893 44.6491 38.3 44.9572C31.4876 56.1906 24.6751 67.3959 17.8626 78.6293C14.9295 83.4476 11.9963 88.2659 9.09473 93.1122C7.99086 94.9331 7.61239 96.894 8.21163 98.939C9.28397 102.553 13.6994 105.438 18.3042 105.438C40.0031 105.438 61.7336 105.438 83.4326 105.438C85.4826 105.438 87.4066 104.99 89.2358 104.149C92.9575 102.413 94.7237 99.3872 93.809 95.9976C93.4305 94.5969 92.7367 93.2242 91.9482 91.9356C82.518 76.3602 73.0247 60.7848 63.5945 45.2093C63.3106 44.7331 63.1529 44.1448 63.1529 43.6126C63.1529 32.043 63.1529 20.4735 63.1529 8.90401C63.1529 8.59586 63.1529 8.28771 63.1529 8.09162C63.7837 7.8395 64.3514 7.72745 64.7614 7.44731C65.3606 7.05513 65.5499 5.15022 65.1399 4.30981C64.7299 3.46941 63.9099 3.38537 63.0268 3.38537C55.7412 3.38537 48.4872 3.38537 41.2016 3.38537C40.2239 3.38537 39.2147 3.38537 38.2369 3.38537C37.1015 3.41339 36.5023 3.97366 36.4708 4.98214C36.4708 5.29029 36.4708 5.59843 36.4708 5.93459C36.4708 7.36327 36.8492 7.75546 38.5839 7.92354L38.5523 7.89553Z" fill="#5E1D57"/>
<path d="M38.5524 7.89534C36.8493 7.72726 36.4708 7.33507 36.4393 5.90639C36.4393 5.59825 36.4393 5.2901 36.4393 4.95394C36.4708 3.94546 37.0701 3.38519 38.2055 3.35718C39.1832 3.32916 40.1924 3.35718 41.1702 3.35718C48.4557 3.35718 55.7097 3.35718 62.9953 3.35718C63.8784 3.35718 64.6984 3.44122 65.1084 4.28162C65.5184 5.12202 65.3292 6.99891 64.7299 7.41911C64.3199 7.69925 63.7523 7.8113 63.1215 8.06342C63.1215 8.25951 63.1215 8.56766 63.1215 8.87581C63.1215 20.4453 63.1215 32.0149 63.1215 43.5844C63.1215 44.1166 63.2792 44.7049 63.563 45.1811C73.0248 60.7566 82.4865 76.332 91.9167 91.9074C92.7052 93.196 93.3991 94.5687 93.7776 95.9694C94.6922 99.359 92.926 102.412 89.2044 104.121C87.4066 104.962 85.4827 105.41 83.4012 105.41C61.7022 105.41 39.9717 105.41 18.2727 105.41C13.668 105.41 9.2525 102.524 8.18016 98.9108C7.58092 96.8658 7.95938 94.9049 9.06326 93.084C11.9649 88.2377 14.898 83.4194 17.8312 78.6011C24.6436 67.3677 31.4876 56.1624 38.2686 44.929C38.4578 44.6489 38.5524 44.2847 38.5524 43.9485C38.5524 32.0989 38.5524 20.2492 38.5524 8.39958C38.5524 8.25951 38.5524 8.09143 38.5209 7.86733L38.5524 7.89534ZM35.6823 56.9467C35.6823 56.9467 35.3985 57.3669 35.2093 57.6751C32.0869 62.7735 28.9645 67.872 25.8737 72.9424C22.1836 78.9652 18.4935 84.9881 14.8034 91.011C13.9203 92.4677 13.3211 94.0084 13.5103 95.6892C13.9518 99.331 18.0519 102.468 22.4674 102.468C41.7379 102.468 61.0399 102.468 80.3103 102.468C82.2342 102.468 84.0004 102.02 85.672 101.18C88.0059 99.9753 89.4882 98.2384 89.5829 95.7453C89.6459 94.1765 89.1098 92.7198 88.2897 91.3472C84.3473 84.652 80.3734 77.9848 76.431 71.2896C73.1509 65.7429 69.8708 60.1963 66.5908 54.6496C64.8561 51.7082 63.153 51.176 59.8098 52.7167C58.1067 53.5011 56.5297 54.4255 54.8582 55.2659C51.2312 57.1148 47.4149 58.3754 43.1887 58.0673C40.7602 57.8992 38.3316 57.3389 35.7139 56.9467H35.6823ZM55.3313 25.2076C55.3313 29.2135 55.3313 33.2194 55.3313 37.2533C55.3313 38.3739 55.3313 39.5224 55.3313 40.643C55.3313 41.6514 56.0566 42.2957 57.0659 42.2957C58.0751 42.2957 58.769 41.6514 58.8637 40.671C58.8637 40.5029 58.8637 40.3628 58.8637 40.1947C58.8637 30.222 58.8637 20.2492 58.8637 10.2765C58.8637 9.9123 58.8952 9.40806 58.6744 9.18396C58.2329 8.76376 57.6021 8.28753 57.0344 8.25952C56.5297 8.25952 55.8989 8.76376 55.4889 9.15594C55.2682 9.38005 55.2997 9.85628 55.2997 10.2485C55.2997 15.2348 55.2997 20.2212 55.2997 25.2076H55.3313Z" fill="white"/>
<path d="M35.6823 56.9468C38.3001 57.367 40.6971 57.8992 43.1571 58.0673C47.3834 58.3755 51.1996 57.1149 54.8266 55.266C56.4666 54.4256 58.0751 53.5011 59.7782 52.7168C63.0898 51.2041 64.8245 51.7363 66.5592 54.6497C69.8393 60.1963 73.1193 65.743 76.3994 71.2896C80.3418 77.9848 84.3158 84.652 88.2582 91.3472C89.0782 92.7199 89.6143 94.1766 89.5512 95.7453C89.4566 98.2385 87.9743 99.9753 85.6404 101.18C84.0004 102.02 82.2026 102.469 80.2787 102.469C61.0083 102.469 41.7063 102.469 22.4358 102.469C18.0519 102.469 13.9203 99.331 13.4787 95.6893C13.2895 94.0085 13.8572 92.4677 14.7718 91.0111C18.4619 84.9882 22.152 78.9653 25.8421 72.9424C28.9645 67.844 32.0868 62.7456 35.1777 57.6751C35.3669 57.367 35.5561 57.0869 35.6508 56.9468H35.6823ZM41.0124 77.3405C38.9624 80.9542 39.2778 83.8116 41.9586 85.8566C44.4817 87.7895 47.951 87.9296 50.6634 86.1927C53.2181 84.568 54.1958 81.4865 52.9973 78.9093C52.2088 77.2005 50.7896 76.0239 48.8342 75.4076C46.9103 74.7913 44.9864 75.0434 43.0625 75.8278C43.9771 73.6428 43.5987 71.99 42.0217 70.9535C40.5078 69.973 38.4578 69.973 37.007 70.9535C35.5561 71.962 35.0515 73.6708 35.7139 75.1835C36.5339 76.9763 38.1108 77.6207 41.0124 77.3405ZM59.8098 66.7515C59.8098 65.5469 58.7374 64.5944 57.4128 64.5944C56.0881 64.5944 54.9843 65.5469 54.9843 66.7235C54.9843 67.9 56.0566 68.8525 57.3813 68.8525C58.769 68.8525 59.7782 67.956 59.7782 66.7515H59.8098Z" fill="#5E1D57"/>
<path d="M55.3311 25.1799C55.3311 20.1935 55.3311 15.2071 55.3311 10.2207C55.3311 9.85655 55.2996 9.38032 55.5204 9.1282C55.9304 8.73601 56.5296 8.20376 57.0658 8.23177C57.6335 8.23177 58.2643 8.73601 58.7058 9.15622C58.9266 9.38032 58.895 9.85655 58.895 10.2487C58.895 20.2215 58.895 30.1942 58.895 40.167C58.895 40.3351 58.895 40.4751 58.895 40.6432C58.832 41.6237 58.1066 42.268 57.0973 42.268C56.0881 42.268 55.3942 41.6237 55.3627 40.6152C55.3627 39.4947 55.3627 38.3461 55.3627 37.2256C55.3627 33.2197 55.3627 29.2138 55.3627 25.1799H55.3311Z" fill="#5E1D57"/>
<path d="M41.0125 77.3126C38.1108 77.5927 36.5339 76.9484 35.7139 75.1556C35.02 73.6709 35.5562 71.962 37.007 70.9256C38.4578 69.9171 40.5079 69.9171 42.0217 70.9256C43.6302 71.9901 44.0087 73.6148 43.0625 75.7999C44.9864 74.9875 46.9103 74.7634 48.8342 75.3797C50.7896 75.996 52.1773 77.1725 52.9974 78.8813C54.1959 81.4586 53.2181 84.54 50.6634 86.1648C47.9826 87.8736 44.4818 87.7616 41.9586 85.8287C39.2778 83.7837 38.9624 80.9263 41.0125 77.3126Z" fill="white"/>
<path d="M59.8098 66.7236C59.8098 67.9281 58.769 68.8246 57.4128 68.8246C56.0566 68.8246 54.9843 67.8721 55.0158 66.6955C55.0158 65.519 56.1197 64.5665 57.4443 64.5665C58.769 64.5665 59.8413 65.519 59.8413 66.7236H59.8098Z" fill="white"/>
</svg>
