<svg width="256" height="94" viewBox="0 0 256 94" fill="none" xmlns="http://www.w3.org/2000/svg">
<path d="M30.7598 74.6091C31.1312 71.0103 33.0412 67.116 36.4899 62.9531V42.6357L29.4864 46.7448V59.2468C29.4864 60.9791 28.8497 62.322 27.5896 63.3023L20.3606 68.8214L20.1351 68.5931C21.1697 67.1697 21.687 65.2897 21.687 62.9666V59.032L20.3473 59.8243L20.1219 59.6497C21.1565 58.4814 21.6738 56.9908 21.6738 55.1511V25.9171C21.6738 23.782 21.0769 21.902 19.8964 20.2906L20.1219 20.0623C21.6738 21.4186 23.491 22.748 25.5735 24.064L27.5764 22.9897C27.9876 22.7614 28.5579 22.4526 29.3007 22.0631C30.0435 21.6737 30.6935 21.2977 31.2506 20.962V21.1903C30.07 22.466 29.4731 23.9431 29.4731 25.6351V42.0717L36.4767 37.9626V26.3603C36.4767 25.3128 36.3308 24.3863 36.0257 23.5806C35.7339 22.7748 35.2829 21.996 34.686 21.244V20.962L37.75 22.9897C38.7449 23.5537 39.3683 23.9297 39.5805 24.1177C41.1324 23.0703 42.3925 22.1034 43.3608 21.2171C44.3291 20.3308 45.125 19.2163 45.7484 17.8734L45.9739 18.1017C44.8199 20.6934 44.2495 23.5 44.2495 26.5483V60.7106C44.2495 62.8457 44.7668 64.578 45.8014 65.894L45.5759 66.1223C45.43 66.0148 44.2628 65.2628 42.0742 63.8663C41.8089 63.6783 41.4242 63.4366 40.9069 63.1411C34.9778 67.6397 31.6618 71.5474 30.9587 74.8508L30.7333 74.6226L30.7598 74.6091Z" fill="#5E1D57"/>
<path d="M60.1798 69.7748C60.2594 69.5466 60.4584 68.9154 60.79 67.868C61.1614 66.6997 61.4267 65.7731 61.5991 65.048C61.7716 64.3363 61.8511 63.6648 61.8511 63.0203V61.6103L57.3413 68.9288L49.8337 62.6308C49.3164 62.1743 48.9185 61.6774 48.64 61.1403C48.3614 60.6031 48.2288 59.9183 48.2288 59.0857V41.8031C48.2288 40.6751 49.0644 39.2114 50.7357 37.412C52.407 35.6126 54.6089 33.6923 57.3546 31.6646L57.5801 31.8928C56.5454 33.3163 56.0281 35.1963 56.0281 37.5194V57.7294C56.0281 58.4814 56.3465 59.1394 56.9964 59.7034C57.6464 60.2674 58.6545 60.9791 60.0207 61.8386L61.8511 59.0186V41.736C61.8511 40.6885 61.5593 39.856 60.989 39.2248C60.4186 38.6071 59.4901 38.0163 58.23 37.4523L61.7848 31.6511C62.0501 31.7988 62.8858 32.3091 64.3183 33.1686C65.7508 34.028 66.9844 35.0217 68.0455 36.1228C69.1067 37.224 69.624 38.2848 69.624 39.3054V58.28C69.624 58.9245 69.3985 59.4886 68.9608 59.9988C68.5098 60.5091 67.7803 61.2074 66.7324 62.1071C65.2866 63.3023 64.053 64.484 63.0317 65.6254C62.0103 66.7668 61.1349 68.2305 60.3921 69.9897L60.1666 69.7614L60.1798 69.7748Z" fill="#5E1D57"/>
<path d="M85.5279 69.7748C85.6075 69.5466 85.8064 68.9154 86.138 67.868C86.5094 66.6997 86.7747 65.7731 86.9471 65.048C87.1196 64.3363 87.1992 63.6648 87.1992 63.0203V61.6103L82.6893 68.9288L75.1818 62.6308C74.6644 62.1743 74.2665 61.6774 73.988 61.1403C73.7094 60.6031 73.5768 59.9183 73.5768 59.0857V41.8031C73.5768 40.6751 74.4124 39.2114 76.0837 37.412C77.755 35.6126 79.9569 33.6923 82.7026 31.6646L82.9281 31.8928C81.8935 33.3163 81.3762 35.1963 81.3762 37.5194V57.7294C81.3762 58.4814 81.6945 59.1394 82.3445 59.7034C82.9944 60.2674 84.0025 60.9791 85.3687 61.8386L87.1992 59.0186V41.736C87.1992 40.6885 86.9074 39.856 86.337 39.2248C85.7666 38.6071 84.8381 38.0163 83.578 37.4523L87.1328 31.6511C87.3981 31.7988 88.2338 32.3091 89.6663 33.1686C91.0989 34.028 92.3324 35.0217 93.3936 36.1228C94.4547 37.224 94.972 38.2848 94.972 39.3054V58.28C94.972 58.9245 94.7465 59.4886 94.3088 59.9988C93.8578 60.5091 93.1283 61.2074 92.0804 62.1071C90.6346 63.3023 89.401 64.484 88.3797 65.6254C87.3583 66.7668 86.4829 68.2305 85.7401 69.9897L85.5146 69.7614L85.5279 69.7748Z" fill="#5E1D57"/>
<path d="M109.47 73.4274C107.971 71.5071 106.233 69.7211 104.27 68.056C102.307 66.3908 100.53 65.142 98.938 64.3094V39.198C98.938 37.9223 99.5216 36.7674 100.689 35.7334C101.856 34.6994 103.448 33.5983 105.437 32.4434C105.623 32.336 105.835 32.2151 106.074 32.0808C106.313 31.9465 106.552 31.8123 106.764 31.6645V28.4551L112.547 41.7897V31.6511C112.547 30.6037 111.857 28.7103 110.491 25.9708C109.125 23.2314 108.051 21.338 107.268 20.2905L107.493 20.0623C110.12 23.1374 112.308 25.4337 114.059 26.9645C115.797 28.482 117.893 29.9188 120.346 31.2751V60.2674C120.346 61.2074 119.975 62.0534 119.232 62.8054C118.489 63.5574 117.336 64.4437 115.784 65.4508C114.709 66.1625 113.834 66.7803 113.144 67.304C112.454 67.8277 111.871 68.4051 111.393 69.0497L111.221 68.8214L111.725 67.4651C112.017 66.7534 112.229 66.1491 112.361 65.6657C112.494 65.1823 112.56 64.578 112.56 63.8663V44.9588L109.894 37.976C108.86 38.7683 108.064 39.4531 107.533 40.0305C106.989 40.608 106.724 41.266 106.724 41.9777V63.9334C108.435 66.0417 109.815 68.244 110.863 70.5805C111.91 72.9171 112.441 75.5894 112.441 78.6243H112.215C111.884 77.08 110.969 75.3611 109.47 73.4408V73.4274Z" fill="#5E1D57"/>
<path d="M123.119 68.5932C123.676 67.8412 124.074 67.022 124.313 66.1492C124.551 65.2629 124.671 64.2423 124.671 63.0875V40.0709C124.671 38.9832 125.055 38.07 125.838 37.318C126.621 36.566 127.907 35.6529 129.724 34.5652C132.099 32.994 133.518 32.0272 134.009 31.6915L134.234 31.9198C133.054 33.5312 132.457 35.4112 132.457 37.5463V60.912C132.457 61.664 132.072 62.4026 131.29 63.1412C130.507 63.8797 129.18 64.86 127.284 66.0955C125.612 67.2235 124.299 68.1366 123.331 68.8483L123.105 68.62L123.119 68.5932ZM124.114 26.038L129.061 20.9755L133.956 25.9306L128.955 30.9395L124.114 26.038Z" fill="#5E1D57"/>
<path d="M137.245 61.1C136.357 60.4286 135.906 59.7437 135.906 59.0723V41.7897C135.906 41.0377 136.104 40.3797 136.489 39.7888C136.874 39.2114 137.391 38.728 138.015 38.352L148.971 31.6511L155.537 42.5148L143.692 52.8683V55.9031C143.692 56.5074 144.103 57.1117 144.912 57.7026L150.642 62.04L154.369 57.9308L155.364 59.22L147.472 68.7946L137.245 61.0865V61.1ZM149.196 45.3348L144.196 36.7271C143.864 36.8748 143.692 37.1434 143.692 37.5194V50.1288L149.196 45.3483V45.3348Z" fill="#5E1D57"/>
<path d="M171.348 75.7909C170.777 75.3477 170.286 74.9449 169.902 74.6091C169.517 74.2734 169.225 74.0317 169.04 73.8706C166.891 71.8831 164.901 70.3254 163.057 69.1974C161.214 68.0694 159.171 67.5054 156.916 67.5054L156.744 67.1697C157.898 66.4177 158.972 65.9343 159.967 65.706V29.3549C160.749 28.4954 161.784 27.1257 163.084 25.2457C164.198 23.6343 165.246 22.2109 166.254 21.0023C167.262 19.7937 168.35 18.6791 169.53 17.7123V17.9943C168.35 19.6057 167.753 21.4589 167.753 23.5671V58.9111C167.753 60.2271 167.275 61.4894 166.307 62.7114C165.339 63.9334 164.198 64.9137 162.858 65.6657C164.636 65.8134 166.201 66.2163 167.527 66.8474C168.867 67.492 170.552 68.4857 172.581 69.8286C172.767 69.936 173.523 70.4329 174.836 71.2923C176.149 72.1517 177.608 72.9843 179.2 73.7631C179.717 73.9914 180.182 74.0989 180.593 74.0989C181.044 74.0989 181.588 73.9646 182.264 73.7094L182.37 73.8169C181.588 74.6763 180.407 75.4417 178.815 76.0997C177.224 76.7577 175.778 77.08 174.478 77.08C173.815 77.08 173.258 76.9726 172.807 76.7443C172.395 76.5563 171.905 76.234 171.334 75.7909H171.348Z" fill="#5E1D57"/>
<path d="M170.737 60.9523C170.737 60.9523 170.857 60.9121 170.883 60.8718C171.825 59.0589 172.74 57.2192 173.722 55.4198C176.494 50.3169 179.293 45.2275 182.065 40.1246C182.994 38.4192 183.922 36.7003 184.837 34.9815C184.97 34.7398 185.05 34.4443 185.05 34.1758C185.063 29.2206 185.063 24.2521 185.05 19.2969C185.05 19.1223 184.943 18.8941 184.811 18.7866C184.4 18.4106 184.201 17.9675 184.174 17.4035C184.148 16.5306 184.227 15.7249 184.93 15.1072C185.05 14.9998 185.142 14.8789 185.249 14.7715C189.639 14.7715 194.043 14.7715 198.433 14.7715C198.526 14.8789 198.606 14.9998 198.712 15.0938C199.773 15.9801 199.813 17.9272 198.778 18.8403C198.685 18.9209 198.619 19.0821 198.619 19.2163C198.619 24.2386 198.619 29.2475 198.619 34.2698C198.619 34.4981 198.698 34.7398 198.805 34.9412C201.948 40.7289 205.092 46.5032 208.249 52.2909C209.628 54.8155 211.008 57.3401 212.374 59.8646C212.52 60.1332 212.613 60.4421 212.745 60.7241C212.785 60.8181 212.878 60.8852 212.944 60.9658V63.0472C212.878 63.1278 212.798 63.1949 212.772 63.2889C212.175 65.0346 210.955 66.1223 209.297 66.7938C209.19 66.8341 209.111 66.9415 209.018 67.0221H174.624C174.531 66.9415 174.465 66.8341 174.359 66.7938C172.714 66.1358 171.52 65.0212 170.897 63.3023C170.857 63.2083 170.764 63.1278 170.698 63.0472C170.698 62.3489 170.698 61.6641 170.698 60.9658L170.737 60.9523ZM186.681 18.3166C186.681 18.4241 186.694 18.4912 186.694 18.5718C186.694 24.2521 186.694 29.9323 186.694 35.6126C186.694 35.7738 186.655 35.9349 186.575 36.0826C183.71 41.4675 180.845 46.8389 177.98 52.2238C176.746 54.5335 175.513 56.8432 174.292 59.1663C173.828 60.0392 173.669 60.9792 173.921 61.9595C174.372 63.6918 176.229 65.0749 178.165 65.0749C187.291 65.0749 196.43 65.0749 205.556 65.0749C206.418 65.0749 207.227 64.8601 207.997 64.4572C209.562 63.6246 210.305 62.1743 209.92 60.5495C209.761 59.8781 209.469 59.2201 209.137 58.6023C205.171 51.1361 201.179 43.6698 197.213 36.2035C197.093 35.9752 197.027 35.6932 197.027 35.4381C197.027 29.8921 197.027 24.3461 197.027 18.8001C197.027 18.6523 197.027 18.5046 197.027 18.4106C197.292 18.2898 197.531 18.2361 197.704 18.1018C197.956 17.9138 198.035 17.0006 197.863 16.5978C197.69 16.1949 197.346 16.1546 196.974 16.1546C193.91 16.1546 190.859 16.1546 187.795 16.1546C187.384 16.1546 186.96 16.1546 186.548 16.1546C186.071 16.1681 185.819 16.4366 185.806 16.9201C185.806 17.0678 185.806 17.2155 185.806 17.3766C185.806 18.0615 185.965 18.2495 186.694 18.3301L186.681 18.3166Z" fill="#5E1D57"/>
<path d="M186.681 18.3166C185.965 18.2361 185.806 18.0481 185.792 17.3632C185.792 17.2155 185.792 17.0678 185.792 16.9067C185.806 16.4232 186.058 16.1547 186.535 16.1412C186.946 16.1278 187.371 16.1412 187.782 16.1412C190.846 16.1412 193.897 16.1412 196.961 16.1412C197.332 16.1412 197.677 16.1815 197.85 16.5844C198.022 16.9872 197.942 17.8869 197.69 18.0884C197.518 18.2226 197.279 18.2764 197.014 18.3972C197.014 18.4912 197.014 18.6389 197.014 18.7866C197.014 24.3327 197.014 29.8787 197.014 35.4247C197.014 35.6798 197.08 35.9618 197.2 36.1901C201.179 43.6564 205.158 51.1227 209.124 58.5889C209.456 59.2066 209.748 59.8646 209.907 60.5361C210.291 62.1609 209.549 63.6246 207.983 64.4438C207.227 64.8466 206.418 65.0615 205.543 65.0615C196.417 65.0615 187.278 65.0615 178.152 65.0615C176.216 65.0615 174.359 63.6784 173.908 61.9461C173.656 60.9658 173.815 60.0258 174.279 59.1529C175.499 56.8298 176.733 54.5201 177.966 52.2104C180.831 46.8255 183.71 41.4541 186.562 36.0692C186.641 35.9349 186.681 35.7604 186.681 35.5992C186.681 29.9189 186.681 24.2386 186.681 18.5584C186.681 18.4912 186.681 18.4106 186.668 18.3032L186.681 18.3166ZM185.474 41.8301C185.474 41.8301 185.355 42.0315 185.275 42.1792C183.962 44.6232 182.649 47.0672 181.349 49.4978C179.797 52.3849 178.245 55.2721 176.693 58.1592C176.322 58.8575 176.07 59.5961 176.149 60.4018C176.335 62.1475 178.059 63.6515 179.916 63.6515C188.021 63.6515 196.138 63.6515 204.243 63.6515C205.052 63.6515 205.795 63.4366 206.498 63.0338C207.479 62.4564 208.103 61.6238 208.143 60.4286C208.169 59.6766 207.944 58.9784 207.599 58.3204C205.941 55.1109 204.269 51.9149 202.611 48.7055C201.232 46.0466 199.852 43.3878 198.473 40.7289C197.743 39.3189 197.027 39.0638 195.621 39.8024C194.905 40.1784 194.242 40.6215 193.539 41.0244C192.013 41.9106 190.408 42.5149 188.631 42.3672C187.61 42.2866 186.588 42.0181 185.487 41.8301H185.474ZM193.738 26.6155C193.738 28.5358 193.738 30.4561 193.738 32.3898C193.738 32.9269 193.738 33.4775 193.738 34.0146C193.738 34.4981 194.043 34.8069 194.467 34.8069C194.892 34.8069 195.183 34.4981 195.223 34.0281C195.223 33.9475 195.223 33.8804 195.223 33.7998C195.223 29.0192 195.223 24.2386 195.223 19.4581C195.223 19.2835 195.236 19.0418 195.144 18.9344C194.958 18.7329 194.693 18.5047 194.454 18.4912C194.242 18.4912 193.976 18.7329 193.804 18.9209C193.711 19.0284 193.724 19.2566 193.724 19.4446C193.724 21.8349 193.724 24.2252 193.724 26.6155H193.738Z" fill="white"/>
<path d="M185.474 41.8301C186.575 42.0315 187.583 42.2866 188.618 42.3672C190.395 42.5149 192 41.9106 193.525 41.0243C194.215 40.6215 194.892 40.1783 195.608 39.8023C197.001 39.0772 197.73 39.3323 198.46 40.7289C199.839 43.3878 201.219 46.0466 202.598 48.7055C204.256 51.9149 205.928 55.1109 207.586 58.3203C207.93 58.9783 208.156 59.6766 208.129 60.4286C208.09 61.6238 207.466 62.4563 206.485 63.0338C205.795 63.4366 205.039 63.6515 204.23 63.6515C196.125 63.6515 188.008 63.6515 179.903 63.6515C178.059 63.6515 176.322 62.1475 176.136 60.4018C176.056 59.5961 176.295 58.8575 176.68 58.1592C178.232 55.2721 179.784 52.3849 181.336 49.4978C182.649 47.0538 183.962 44.6098 185.262 42.1792C185.341 42.0315 185.421 41.8972 185.461 41.8301H185.474ZM187.716 51.6061C186.854 53.3383 186.986 54.7081 188.114 55.6883C189.175 56.6149 190.634 56.6821 191.775 55.8495C192.849 55.0706 193.26 53.5935 192.756 52.3581C192.425 51.5389 191.828 50.9749 191.005 50.6795C190.196 50.3841 189.387 50.5049 188.578 50.8809C188.963 49.8335 188.803 49.0412 188.14 48.5443C187.503 48.0743 186.641 48.0743 186.031 48.5443C185.421 49.0278 185.209 49.8469 185.487 50.5721C185.832 51.4315 186.495 51.7403 187.716 51.6061ZM195.621 46.5301C195.621 45.9526 195.17 45.4961 194.613 45.4961C194.056 45.4961 193.592 45.9526 193.592 46.5166C193.592 47.0806 194.043 47.5372 194.6 47.5372C195.183 47.5372 195.608 47.1075 195.608 46.5301H195.621Z" fill="#5E1D57"/>
<path d="M193.738 26.6021C193.738 24.2118 193.738 21.8215 193.738 19.4312C193.738 19.2567 193.724 19.0284 193.817 18.9075C193.99 18.7195 194.242 18.4644 194.467 18.4778C194.706 18.4778 194.971 18.7195 195.157 18.9209C195.25 19.0284 195.236 19.2567 195.236 19.4447C195.236 24.2252 195.236 29.0058 195.236 33.7864C195.236 33.8669 195.236 33.9341 195.236 34.0147C195.21 34.4847 194.905 34.7935 194.48 34.7935C194.056 34.7935 193.764 34.4847 193.751 34.0012C193.751 33.4641 193.751 32.9135 193.751 32.3764C193.751 30.4561 193.751 28.5358 193.751 26.6021H193.738Z" fill="#5E1D57"/>
<path d="M187.716 51.5926C186.495 51.7269 185.832 51.418 185.487 50.5586C185.196 49.8469 185.421 49.0278 186.031 48.5309C186.641 48.0475 187.503 48.0475 188.14 48.5309C188.817 49.0412 188.976 49.8201 188.578 50.8675C189.387 50.4781 190.196 50.3706 191.005 50.666C191.828 50.9615 192.411 51.5255 192.756 52.3446C193.26 53.58 192.849 55.0572 191.775 55.836C190.647 56.6552 189.175 56.6015 188.114 55.6749C186.986 54.6946 186.854 53.3249 187.716 51.5926Z" fill="white"/>
<path d="M195.621 46.5167C195.621 47.0941 195.183 47.5238 194.613 47.5238C194.043 47.5238 193.592 47.0672 193.605 46.5032C193.605 45.9392 194.069 45.4827 194.626 45.4827C195.183 45.4827 195.634 45.9392 195.634 46.5167H195.621Z" fill="white"/>
<path d="M221.248 75.3477C221.911 73.8034 222.839 72.098 224.02 70.2314C221.513 68.7274 219.59 67.3174 218.277 66.0148L217.043 66.8205C216.579 67.0891 215.849 67.5591 214.868 68.2305L214.669 68.0291C215.597 66.8608 216.061 65.3031 216.061 63.3694V35.4783C216.061 33.7997 215.915 32.3897 215.61 31.208C215.319 30.0397 214.775 29.0057 213.979 28.0925L214.178 27.8911C215 28.1597 215.982 28.5491 217.096 29.0728C218.223 29.5965 219.245 30.1337 220.173 30.6977L221.115 30.0934C223.065 28.858 224.219 28.1194 224.59 27.8911V28.0925C223.529 29.4354 222.999 30.9663 222.999 32.712V34.0145L228.198 25.9305L228.145 27.8911C229.83 28.9251 231.421 30.1471 232.907 31.5303C234.393 32.9134 235.135 34.1085 235.135 35.1157V39.9768C235.135 40.514 234.817 41.1585 234.167 41.9374C233.517 42.7028 232.509 43.7234 231.116 44.9991L229.286 46.7045L234.141 50.0617C234.936 50.5988 235.334 51.4985 235.334 52.7743V64.6183C232.987 65.4911 230.44 66.9548 227.707 69.0094C224.975 71.064 222.879 73.2528 221.46 75.5625L221.261 75.3611L221.248 75.3477ZM228.185 45.0931V37.0628C228.185 36.3914 227.933 35.7871 227.416 35.25C226.898 34.7128 226.102 34.0414 225.015 33.2491L222.985 36.7674V50.1691L228.185 45.1065V45.0931ZM226.752 66.5117C227.641 65.3031 228.185 64.5511 228.384 64.2557V55.5808C228.384 55.1511 228.344 54.802 228.264 54.5468C228.185 54.2917 228.012 54.0768 227.747 53.8754L224.272 51.3105L222.985 52.5191V64.6585C222.985 65.6925 223.118 66.6594 223.383 67.5457C223.649 68.432 223.967 69.1705 224.325 69.7748C224.988 68.808 225.797 67.7203 226.752 66.5117Z" fill="#5E1D57"/>
</svg>
