<svg width="193" height="70" viewBox="0 0 193 70" fill="none" xmlns="http://www.w3.org/2000/svg">
<path d="M23.19 55.56C23.47 52.88 24.91 49.98 27.51 46.88V31.75L22.23 34.81V44.12C22.23 45.41 21.75 46.41 20.8 47.14L15.35 51.25L15.18 51.08C15.96 50.02 16.35 48.62 16.35 46.89V43.96L15.34 44.55L15.17 44.42C15.95 43.55 16.34 42.44 16.34 41.07V19.3C16.34 17.71 15.89 16.31 15 15.11L15.17 14.94C16.34 15.95 17.71 16.94 19.28 17.92L20.79 17.12C21.1 16.95 21.53 16.72 22.09 16.43C22.65 16.14 23.14 15.86 23.56 15.61V15.78C22.67 16.73 22.22 17.83 22.22 19.09V31.33L27.5 28.27V19.63C27.5 18.85 27.39 18.16 27.16 17.56C26.94 16.96 26.6 16.38 26.15 15.82V15.61L28.46 17.12C29.21 17.54 29.68 17.82 29.84 17.96C31.01 17.18 31.96 16.46 32.69 15.8C33.42 15.14 34.02 14.31 34.49 13.31L34.66 13.48C33.79 15.41 33.36 17.5 33.36 19.77V45.21C33.36 46.8 33.75 48.09 34.53 49.07L34.36 49.24C34.25 49.16 33.37 48.6 31.72 47.56C31.52 47.42 31.23 47.24 30.84 47.02C26.37 50.37 23.87 53.28 23.34 55.74L23.17 55.57L23.19 55.56Z" fill="#5E1D57"/>
<path d="M45.37 51.96C45.43 51.79 45.58 51.32 45.83 50.54C46.11 49.67 46.31 48.98 46.44 48.44C46.57 47.91 46.63 47.41 46.63 46.93V45.88L43.23 51.33L37.57 46.64C37.18 46.3 36.88 45.93 36.67 45.53C36.46 45.13 36.36 44.62 36.36 44V31.13C36.36 30.29 36.99 29.2 38.25 27.86C39.51 26.52 41.17 25.09 43.24 23.58L43.41 23.75C42.63 24.81 42.24 26.21 42.24 27.94V42.99C42.24 43.55 42.48 44.04 42.97 44.46C43.46 44.88 44.22 45.41 45.25 46.05L46.63 43.95V31.08C46.63 30.3 46.41 29.68 45.98 29.21C45.55 28.75 44.85 28.31 43.9 27.89L46.58 23.57C46.78 23.68 47.41 24.06 48.49 24.7C49.57 25.34 50.5 26.08 51.3 26.9C52.1 27.72 52.49 28.51 52.49 29.27V43.4C52.49 43.88 52.32 44.3 51.99 44.68C51.65 45.06 51.1 45.58 50.31 46.25C49.22 47.14 48.29 48.02 47.52 48.87C46.75 49.72 46.09 50.81 45.53 52.12L45.36 51.95L45.37 51.96Z" fill="#5E1D57"/>
<path d="M64.48 51.96C64.54 51.79 64.69 51.32 64.94 50.54C65.22 49.67 65.42 48.98 65.55 48.44C65.68 47.91 65.74 47.41 65.74 46.93V45.88L62.34 51.33L56.68 46.64C56.29 46.3 55.99 45.93 55.78 45.53C55.57 45.13 55.47 44.62 55.47 44V31.13C55.47 30.29 56.1 29.2 57.36 27.86C58.62 26.52 60.28 25.09 62.35 23.58L62.52 23.75C61.74 24.81 61.35 26.21 61.35 27.94V42.99C61.35 43.55 61.59 44.04 62.08 44.46C62.57 44.88 63.33 45.41 64.36 46.05L65.74 43.95V31.08C65.74 30.3 65.52 29.68 65.09 29.21C64.66 28.75 63.96 28.31 63.01 27.89L65.69 23.57C65.89 23.68 66.52 24.06 67.6 24.7C68.68 25.34 69.61 26.08 70.41 26.9C71.21 27.72 71.6 28.51 71.6 29.27V43.4C71.6 43.88 71.43 44.3 71.1 44.68C70.76 45.06 70.21 45.58 69.42 46.25C68.33 47.14 67.4 48.02 66.63 48.87C65.86 49.72 65.2 50.81 64.64 52.12L64.47 51.95L64.48 51.96Z" fill="#5E1D57"/>
<path d="M82.53 54.68C81.4 53.25 80.09 51.92 78.61 50.68C77.13 49.44 75.79 48.51 74.59 47.89V29.19C74.59 28.24 75.03 27.38 75.91 26.61C76.79 25.84 77.99 25.02 79.49 24.16C79.63 24.08 79.79 23.99 79.97 23.89C80.15 23.79 80.33 23.69 80.49 23.58V21.19L84.85 31.12V23.57C84.85 22.79 84.33 21.38 83.3 19.34C82.27 17.3 81.46 15.89 80.87 15.11L81.04 14.94C83.02 17.23 84.67 18.94 85.99 20.08C87.3 21.21 88.88 22.28 90.73 23.29V44.88C90.73 45.58 90.45 46.21 89.89 46.77C89.33 47.33 88.46 47.99 87.29 48.74C86.48 49.27 85.82 49.73 85.3 50.12C84.78 50.51 84.34 50.94 83.98 51.42L83.85 51.25L84.23 50.24C84.45 49.71 84.61 49.26 84.71 48.9C84.81 48.54 84.86 48.09 84.86 47.56V33.48L82.85 28.28C82.07 28.87 81.47 29.38 81.07 29.81C80.66 30.24 80.46 30.73 80.46 31.26V47.61C81.75 49.18 82.79 50.82 83.58 52.56C84.37 54.3 84.77 56.29 84.77 58.55H84.6C84.35 57.4 83.66 56.12 82.53 54.69V54.68Z" fill="#5E1D57"/>
<path d="M92.8201 51.08C93.2401 50.52 93.5401 49.91 93.7201 49.26C93.9001 48.6 93.9901 47.84 93.9901 46.98V29.84C93.9901 29.03 94.2801 28.35 94.8701 27.79C95.4601 27.23 96.4301 26.55 97.8001 25.74C99.5901 24.57 100.66 23.85 101.03 23.6L101.2 23.77C100.31 24.97 99.8601 26.37 99.8601 27.96V45.36C99.8601 45.92 99.5701 46.47 98.9801 47.02C98.3901 47.57 97.3901 48.3 95.9601 49.22C94.7001 50.06 93.7101 50.74 92.9801 51.27L92.8101 51.1L92.8201 51.08ZM93.5701 19.39L97.3001 15.62L100.99 19.31L97.2201 23.04L93.5701 19.39Z" fill="#5E1D57"/>
<path d="M103.47 45.5C102.8 45 102.46 44.49 102.46 43.99V31.12C102.46 30.56 102.61 30.07 102.9 29.63C103.19 29.2 103.58 28.84 104.05 28.56L112.31 23.57L117.26 31.66L108.33 39.37V41.63C108.33 42.08 108.64 42.53 109.25 42.97L113.57 46.2L116.38 43.14L117.13 44.1L111.18 51.23L103.47 45.49V45.5ZM112.48 33.76L108.71 27.35C108.46 27.46 108.33 27.66 108.33 27.94V37.33L112.48 33.77V33.76Z" fill="#5E1D57"/>
<path d="M129.18 56.44C128.75 56.11 128.38 55.81 128.09 55.56C127.8 55.31 127.58 55.13 127.44 55.01C125.82 53.53 124.32 52.37 122.93 51.53C121.54 50.69 120 50.27 118.3 50.27L118.17 50.02C119.04 49.46 119.85 49.1 120.6 48.93V21.86C121.19 21.22 121.97 20.2 122.95 18.8C123.79 17.6 124.58 16.54 125.34 15.64C126.1 14.74 126.92 13.91 127.81 13.19V13.4C126.92 14.6 126.47 15.98 126.47 17.55V43.87C126.47 44.85 126.11 45.79 125.38 46.7C124.65 47.61 123.79 48.34 122.78 48.9C124.12 49.01 125.3 49.31 126.3 49.78C127.31 50.26 128.58 51 130.11 52C130.25 52.08 130.82 52.45 131.81 53.09C132.8 53.73 133.9 54.35 135.1 54.93C135.49 55.1 135.84 55.18 136.15 55.18C136.49 55.18 136.9 55.08 137.41 54.89L137.49 54.97C136.9 55.61 136.01 56.18 134.81 56.67C133.61 57.16 132.52 57.4 131.54 57.4C131.04 57.4 130.62 57.32 130.28 57.15C129.97 57.01 129.6 56.77 129.17 56.44H129.18Z" fill="#5E1D57"/>
<path d="M128.72 45.39C128.72 45.39 128.81 45.36 128.83 45.33C129.54 43.98 130.23 42.61 130.97 41.27C133.06 37.47 135.17 33.68 137.26 29.88C137.96 28.61 138.66 27.33 139.35 26.05C139.45 25.87 139.51 25.65 139.51 25.45C139.52 21.76 139.52 18.06 139.51 14.37C139.51 14.24 139.43 14.07 139.33 13.99C139.02 13.71 138.87 13.38 138.85 12.96C138.83 12.31 138.89 11.71 139.42 11.25C139.51 11.17 139.58 11.08 139.66 11C142.97 11 146.29 11 149.6 11C149.67 11.08 149.73 11.17 149.81 11.24C150.61 11.9 150.64 13.35 149.86 14.03C149.79 14.09 149.74 14.21 149.74 14.31C149.74 18.05 149.74 21.78 149.74 25.52C149.74 25.69 149.8 25.87 149.88 26.02C152.25 30.33 154.62 34.63 157 38.94C158.04 40.82 159.08 42.7 160.11 44.58C160.22 44.78 160.29 45.01 160.39 45.22C160.42 45.29 160.49 45.34 160.54 45.4V46.95C160.49 47.01 160.43 47.06 160.41 47.13C159.96 48.43 159.04 49.24 157.79 49.74C157.71 49.77 157.65 49.85 157.58 49.91H131.65C131.58 49.85 131.53 49.77 131.45 49.74C130.21 49.25 129.31 48.42 128.84 47.14C128.81 47.07 128.74 47.01 128.69 46.95C128.69 46.43 128.69 45.92 128.69 45.4L128.72 45.39ZM140.74 13.64C140.74 13.72 140.75 13.77 140.75 13.83C140.75 18.06 140.75 22.29 140.75 26.52C140.75 26.64 140.72 26.76 140.66 26.87C138.5 30.88 136.34 34.88 134.18 38.89C133.25 40.61 132.32 42.33 131.4 44.06C131.05 44.71 130.93 45.41 131.12 46.14C131.46 47.43 132.86 48.46 134.32 48.46C141.2 48.46 148.09 48.46 154.97 48.46C155.62 48.46 156.23 48.3 156.81 48C157.99 47.38 158.55 46.3 158.26 45.09C158.14 44.59 157.92 44.1 157.67 43.64C154.68 38.08 151.67 32.52 148.68 26.96C148.59 26.79 148.54 26.58 148.54 26.39C148.54 22.26 148.54 18.13 148.54 14C148.54 13.89 148.54 13.78 148.54 13.71C148.74 13.62 148.92 13.58 149.05 13.48C149.24 13.34 149.3 12.66 149.17 12.36C149.04 12.06 148.78 12.03 148.5 12.03C146.19 12.03 143.89 12.03 141.58 12.03C141.27 12.03 140.95 12.03 140.64 12.03C140.28 12.04 140.09 12.24 140.08 12.6C140.08 12.71 140.08 12.82 140.08 12.94C140.08 13.45 140.2 13.59 140.75 13.65L140.74 13.64Z" fill="#5E1D57"/>
<path d="M140.74 13.64C140.2 13.58 140.08 13.44 140.07 12.93C140.07 12.82 140.07 12.71 140.07 12.59C140.08 12.23 140.27 12.03 140.63 12.02C140.94 12.01 141.26 12.02 141.57 12.02C143.88 12.02 146.18 12.02 148.49 12.02C148.77 12.02 149.03 12.05 149.16 12.35C149.29 12.65 149.23 13.32 149.04 13.47C148.91 13.57 148.73 13.61 148.53 13.7C148.53 13.77 148.53 13.88 148.53 13.99C148.53 18.12 148.53 22.25 148.53 26.38C148.53 26.57 148.58 26.78 148.67 26.95C151.67 32.51 154.67 38.07 157.66 43.63C157.91 44.09 158.13 44.58 158.25 45.08C158.54 46.29 157.98 47.38 156.8 47.99C156.23 48.29 155.62 48.45 154.96 48.45C148.08 48.45 141.19 48.45 134.31 48.45C132.85 48.45 131.45 47.42 131.11 46.13C130.92 45.4 131.04 44.7 131.39 44.05C132.31 42.32 133.24 40.6 134.17 38.88C136.33 34.87 138.5 30.87 140.65 26.86C140.71 26.76 140.74 26.63 140.74 26.51C140.74 22.28 140.74 18.05 140.74 13.82C140.74 13.77 140.74 13.71 140.73 13.63L140.74 13.64ZM139.83 31.15C139.83 31.15 139.74 31.3 139.68 31.41C138.69 33.23 137.7 35.05 136.72 36.86C135.55 39.01 134.38 41.16 133.21 43.31C132.93 43.83 132.74 44.38 132.8 44.98C132.94 46.28 134.24 47.4 135.64 47.4C141.75 47.4 147.87 47.4 153.98 47.4C154.59 47.4 155.15 47.24 155.68 46.94C156.42 46.51 156.89 45.89 156.92 45C156.94 44.44 156.77 43.92 156.51 43.43C155.26 41.04 154 38.66 152.75 36.27C151.71 34.29 150.67 32.31 149.63 30.33C149.08 29.28 148.54 29.09 147.48 29.64C146.94 29.92 146.44 30.25 145.91 30.55C144.76 31.21 143.55 31.66 142.21 31.55C141.44 31.49 140.67 31.29 139.84 31.15H139.83ZM146.06 19.82C146.06 21.25 146.06 22.68 146.06 24.12C146.06 24.52 146.06 24.93 146.06 25.33C146.06 25.69 146.29 25.92 146.61 25.92C146.93 25.92 147.15 25.69 147.18 25.34C147.18 25.28 147.18 25.23 147.18 25.17C147.18 21.61 147.18 18.05 147.18 14.49C147.18 14.36 147.19 14.18 147.12 14.1C146.98 13.95 146.78 13.78 146.6 13.77C146.44 13.77 146.24 13.95 146.11 14.09C146.04 14.17 146.05 14.34 146.05 14.48C146.05 16.26 146.05 18.04 146.05 19.82H146.06Z" fill="white"/>
<path d="M139.83 31.15C140.66 31.3 141.42 31.49 142.2 31.55C143.54 31.66 144.75 31.21 145.9 30.55C146.42 30.25 146.93 29.92 147.47 29.64C148.52 29.1 149.07 29.29 149.62 30.33C150.66 32.31 151.7 34.29 152.74 36.27C153.99 38.66 155.25 41.04 156.5 43.43C156.76 43.92 156.93 44.44 156.91 45C156.88 45.89 156.41 46.51 155.67 46.94C155.15 47.24 154.58 47.4 153.97 47.4C147.86 47.4 141.74 47.4 135.63 47.4C134.24 47.4 132.93 46.28 132.79 44.98C132.73 44.38 132.91 43.83 133.2 43.31C134.37 41.16 135.54 39.01 136.71 36.86C137.7 35.04 138.69 33.22 139.67 31.41C139.73 31.3 139.79 31.2 139.82 31.15H139.83ZM141.52 38.43C140.87 39.72 140.97 40.74 141.82 41.47C142.62 42.16 143.72 42.21 144.58 41.59C145.39 41.01 145.7 39.91 145.32 38.99C145.07 38.38 144.62 37.96 144 37.74C143.39 37.52 142.78 37.61 142.17 37.89C142.46 37.11 142.34 36.52 141.84 36.15C141.36 35.8 140.71 35.8 140.25 36.15C139.79 36.51 139.63 37.12 139.84 37.66C140.1 38.3 140.6 38.53 141.52 38.43ZM147.48 34.65C147.48 34.22 147.14 33.88 146.72 33.88C146.3 33.88 145.95 34.22 145.95 34.64C145.95 35.06 146.29 35.4 146.71 35.4C147.15 35.4 147.47 35.08 147.47 34.65H147.48Z" fill="#5E1D57"/>
<path d="M146.06 19.81C146.06 18.03 146.06 16.25 146.06 14.47C146.06 14.34 146.05 14.17 146.12 14.08C146.25 13.94 146.44 13.75 146.61 13.76C146.79 13.76 146.99 13.94 147.13 14.09C147.2 14.17 147.19 14.34 147.19 14.48C147.19 18.04 147.19 21.6 147.19 25.16C147.19 25.22 147.19 25.27 147.19 25.33C147.17 25.68 146.94 25.91 146.62 25.91C146.3 25.91 146.08 25.68 146.07 25.32C146.07 24.92 146.07 24.51 146.07 24.11C146.07 22.68 146.07 21.25 146.07 19.81H146.06Z" fill="#5E1D57"/>
<path d="M141.52 38.42C140.6 38.52 140.1 38.29 139.84 37.65C139.62 37.12 139.79 36.51 140.25 36.14C140.71 35.78 141.36 35.78 141.84 36.14C142.35 36.52 142.47 37.1 142.17 37.88C142.78 37.59 143.39 37.51 144 37.73C144.62 37.95 145.06 38.37 145.32 38.98C145.7 39.9 145.39 41 144.58 41.58C143.73 42.19 142.62 42.15 141.82 41.46C140.97 40.73 140.87 39.71 141.52 38.42Z" fill="white"/>
<path d="M147.48 34.64C147.48 35.07 147.15 35.39 146.72 35.39C146.29 35.39 145.95 35.05 145.96 34.63C145.96 34.21 146.31 33.87 146.73 33.87C147.15 33.87 147.49 34.21 147.49 34.64H147.48Z" fill="white"/>
<path d="M166.8 56.11C167.3 54.96 168 53.69 168.89 52.3C167 51.18 165.55 50.13 164.56 49.16L163.63 49.76C163.28 49.96 162.73 50.31 161.99 50.81L161.84 50.66C162.54 49.79 162.89 48.63 162.89 47.19V26.42C162.89 25.17 162.78 24.12 162.55 23.24C162.33 22.37 161.92 21.6 161.32 20.92L161.47 20.77C162.09 20.97 162.83 21.26 163.67 21.65C164.52 22.04 165.29 22.44 165.99 22.86L166.7 22.41C168.17 21.49 169.04 20.94 169.32 20.77V20.92C168.52 21.92 168.12 23.06 168.12 24.36V25.33L172.04 19.31L172 20.77C173.27 21.54 174.47 22.45 175.59 23.48C176.71 24.51 177.27 25.4 177.27 26.15V29.77C177.27 30.17 177.03 30.65 176.54 31.23C176.05 31.8 175.29 32.56 174.24 33.51L172.86 34.78L176.52 37.28C177.12 37.68 177.42 38.35 177.42 39.3V48.12C175.65 48.77 173.73 49.86 171.67 51.39C169.61 52.92 168.03 54.55 166.96 56.27L166.81 56.12L166.8 56.11ZM172.03 33.58V27.6C172.03 27.1 171.84 26.65 171.45 26.25C171.06 25.85 170.46 25.35 169.64 24.76L168.11 27.38V37.36L172.03 33.59V33.58ZM170.95 49.53C171.62 48.63 172.03 48.07 172.18 47.85V41.39C172.18 41.07 172.15 40.81 172.09 40.62C172.03 40.43 171.9 40.27 171.7 40.12L169.08 38.21L168.11 39.11V48.15C168.11 48.92 168.21 49.64 168.41 50.3C168.61 50.96 168.85 51.51 169.12 51.96C169.62 51.24 170.23 50.43 170.95 49.53Z" fill="#5E1D57"/>
</svg>
