<svg width="101" height="109" viewBox="0 0 101 109" fill="none" xmlns="http://www.w3.org/2000/svg">
<path d="M0.36854 96.338C0.36854 96.338 0.652394 96.2539 0.715473 96.1699C2.95476 92.3881 5.13096 88.5502 7.46486 84.7965C14.0566 74.1514 20.7113 63.5343 27.303 52.8892C29.5108 49.3315 31.7185 45.7458 33.8947 42.1601C34.2101 41.6559 34.3993 41.0396 34.3993 40.4793C34.4309 30.1424 34.4309 19.7774 34.3993 9.4405C34.3993 9.07633 34.147 8.6001 33.8316 8.376C32.8539 7.59162 32.3808 6.66718 32.3177 5.49062C32.2547 3.66975 32.4439 1.98895 34.1155 0.700334C34.3993 0.476227 34.6201 0.224107 34.8724 0C45.3119 0 55.7829 0 66.2224 0C66.4432 0.224107 66.6324 0.476227 66.8847 0.67232C69.4079 2.5212 69.5024 6.58314 67.0424 8.48805C66.8216 8.65613 66.6639 8.99229 66.6639 9.27242C66.6639 19.7494 66.6639 30.1984 66.6639 40.6754C66.6639 41.1516 66.8532 41.6559 67.1055 42.0761C74.5803 54.1498 82.0551 66.1956 89.5614 78.2693C92.8415 83.5359 96.1215 88.8024 99.3701 94.0689C99.717 94.6291 99.9378 95.2735 100.253 95.8617C100.348 96.0578 100.569 96.1979 100.726 96.366V100.708C100.569 100.876 100.379 101.016 100.316 101.212C98.897 104.854 95.9954 107.123 92.053 108.524C91.8007 108.608 91.6114 108.832 91.3906 109H9.60953C9.38875 108.832 9.23104 108.608 8.97873 108.524C5.06787 107.151 2.22936 104.826 0.747019 101.24C0.652401 101.044 0.431622 100.876 0.273926 100.708C0.273926 99.2514 0.273926 97.8227 0.273926 96.366L0.36854 96.338ZM38.2786 7.39553C38.2786 7.61963 38.3102 7.7597 38.3102 7.92778C38.3102 19.7774 38.3102 31.6271 38.3102 43.4767C38.3102 43.8129 38.2156 44.1491 38.0264 44.4572C31.2139 55.6906 24.4014 66.8959 17.5889 78.1293C14.6558 82.9476 11.7227 87.7659 8.82105 92.6122C7.71717 94.4331 7.33871 96.394 7.93795 98.439C9.01029 102.053 13.4258 104.938 18.0305 104.938C39.7295 104.938 61.4599 104.938 83.1589 104.938C85.209 104.938 87.1329 104.49 88.9622 103.649C92.6838 101.913 94.45 98.8872 93.5353 95.4976C93.1569 94.0969 92.463 92.7242 91.6745 91.4356C82.2443 75.8602 72.751 60.2848 63.3208 44.7093C63.0369 44.2331 62.8792 43.6448 62.8792 43.1126C62.8792 31.543 62.8792 19.9735 62.8792 8.40401C62.8792 8.09586 62.8792 7.78771 62.8792 7.59162C63.51 7.3395 64.0777 7.22745 64.4877 6.94731C65.087 6.55513 65.2762 4.65022 64.8662 3.80981C64.4562 2.96941 63.6362 2.88537 62.7531 2.88537C55.4675 2.88537 48.2135 2.88537 40.928 2.88537C39.9502 2.88537 38.941 2.88537 37.9633 2.88537C36.8278 2.91339 36.2286 3.47366 36.1971 4.48214C36.1971 4.79029 36.1971 5.09843 36.1971 5.43459C36.1971 6.86327 36.5755 7.25546 38.3102 7.42354L38.2786 7.39553Z" fill="#5E1D57"/>
<path d="M38.2787 7.39534C36.5756 7.22726 36.1971 6.83507 36.1656 5.40639C36.1656 5.09825 36.1656 4.7901 36.1656 4.45394C36.1971 3.44546 36.7964 2.88519 37.9318 2.85718C38.9095 2.82916 39.9188 2.85718 40.8965 2.85718C48.182 2.85718 55.436 2.85718 62.7216 2.85718C63.6047 2.85718 64.4247 2.94122 64.8347 3.78162C65.2447 4.62202 65.0555 6.49891 64.4563 6.91911C64.0463 7.19925 63.4786 7.3113 62.8478 7.56342C62.8478 7.75951 62.8478 8.06766 62.8478 8.37581C62.8478 19.9453 62.8478 31.5149 62.8478 43.0844C62.8478 43.6166 63.0055 44.2049 63.2893 44.6811C72.7511 60.2566 82.2128 75.832 91.643 91.4074C92.4315 92.696 93.1254 94.0687 93.5039 95.4694C94.4185 98.859 92.6523 101.912 88.9307 103.621C87.1329 104.462 85.2091 104.91 83.1275 104.91C61.4285 104.91 39.698 104.91 17.999 104.91C13.3943 104.91 8.97881 102.024 7.90648 98.4108C7.30724 96.3658 7.6857 94.4049 8.78957 92.584C11.6912 87.7377 14.6243 82.9194 17.5575 78.1011C24.3699 66.8677 31.214 55.6624 37.9949 44.429C38.1841 44.1489 38.2787 43.7847 38.2787 43.4485C38.2787 31.5989 38.2787 19.7492 38.2787 7.89958C38.2787 7.75951 38.2787 7.59143 38.2472 7.36733L38.2787 7.39534ZM35.4087 56.4467C35.4087 56.4467 35.1248 56.8669 34.9356 57.1751C31.8132 62.2735 28.6908 67.372 25.6 72.4424C21.9099 78.4652 18.2198 84.4881 14.5297 90.511C13.6466 91.9677 13.0474 93.5084 13.2366 95.1892C13.6782 98.831 17.7782 101.968 22.1937 101.968C41.4642 101.968 60.7662 101.968 80.0366 101.968C81.9605 101.968 83.7267 101.52 85.3983 100.68C87.7322 99.4753 89.2146 97.7384 89.3092 95.2453C89.3723 93.6765 88.8361 92.2198 88.0161 90.8472C84.0737 84.152 80.0997 77.4848 76.1573 70.7896C72.8773 65.2429 69.5971 59.6963 66.3171 54.1496C64.5824 51.2082 62.8793 50.676 59.5362 52.2167C57.833 53.0011 56.2561 53.9255 54.5845 54.7659C50.9575 56.6148 47.1412 57.8754 42.915 57.5673C40.4865 57.3992 38.058 56.8389 35.4402 56.4467H35.4087ZM55.0576 24.7076C55.0576 28.7135 55.0576 32.7194 55.0576 36.7533C55.0576 37.8739 55.0576 39.0224 55.0576 40.143C55.0576 41.1514 55.783 41.7957 56.7922 41.7957C57.8015 41.7957 58.4954 41.1514 58.59 40.171C58.59 40.0029 58.59 39.8628 58.59 39.6947C58.59 29.722 58.59 19.7492 58.59 9.77648C58.59 9.4123 58.6215 8.90806 58.4007 8.68396C57.9592 8.26376 57.3284 7.78753 56.7607 7.75952C56.2561 7.75952 55.6253 8.26376 55.2153 8.65594C54.9945 8.88005 55.026 9.35628 55.026 9.74846C55.026 14.7348 55.026 19.7212 55.026 24.7076H55.0576Z" fill="white"/>
<path d="M35.4086 56.4468C38.0264 56.867 40.4234 57.3992 42.8834 57.5673C47.1097 57.8755 50.9259 56.6149 54.5529 54.766C56.193 53.9256 57.8014 53.0011 59.5046 52.2168C62.8162 50.7041 64.5509 51.2363 66.2855 54.1497C69.5656 59.6963 72.8457 65.243 76.1257 70.7896C80.0681 77.4848 84.0421 84.152 87.9845 90.8472C88.8045 92.2199 89.3406 93.6766 89.2776 95.2453C89.1829 97.7385 87.7006 99.4753 85.3667 100.68C83.7267 101.52 81.9289 101.969 80.005 101.969C60.7346 101.969 41.4326 101.969 22.1621 101.969C17.7782 101.969 13.6466 98.831 13.205 95.1893C13.0158 93.5085 13.5835 91.9677 14.4981 90.5111C18.1882 84.4882 21.8783 78.4653 25.5684 72.4424C28.6908 67.344 31.8131 62.2456 34.904 57.1751C35.0932 56.867 35.2825 56.5869 35.3771 56.4468H35.4086ZM40.7387 76.8405C38.6887 80.4542 39.0041 83.3116 41.6849 85.3566C44.2081 87.2895 47.6774 87.4296 50.3897 85.6927C52.9444 84.068 53.9221 80.9865 52.7236 78.4093C51.9352 76.7005 50.5159 75.5239 48.5605 74.9076C46.6366 74.2913 44.7127 74.5434 42.7888 75.3278C43.7034 73.1428 43.325 71.49 41.748 70.4535C40.2341 69.473 38.1841 69.473 36.7333 70.4535C35.2825 71.4619 34.7779 73.1708 35.4402 74.6835C36.2602 76.4763 37.8371 77.1207 40.7387 76.8405ZM59.5361 66.2515C59.5361 65.0469 58.4638 64.0944 57.1391 64.0944C55.8145 64.0944 54.7106 65.0469 54.7106 66.2235C54.7106 67.4 55.7829 68.3525 57.1076 68.3525C58.4953 68.3525 59.5046 67.456 59.5046 66.2515H59.5361Z" fill="#5E1D57"/>
<path d="M55.0575 24.6799C55.0575 19.6935 55.0575 14.7071 55.0575 9.72072C55.0575 9.35655 55.0259 8.88032 55.2467 8.6282C55.6567 8.23601 56.2559 7.70376 56.7921 7.73177C57.3598 7.73177 57.9906 8.23601 58.4321 8.65622C58.6529 8.88032 58.6214 9.35655 58.6214 9.74873C58.6214 19.7215 58.6214 29.6942 58.6214 39.667C58.6214 39.8351 58.6214 39.9751 58.6214 40.1432C58.5583 41.1237 57.8329 41.768 56.8237 41.768C55.8144 41.768 55.1205 41.1237 55.089 40.1152C55.089 38.9947 55.089 37.8461 55.089 36.7256C55.089 32.7197 55.089 28.7138 55.089 24.6799H55.0575Z" fill="#5E1D57"/>
<path d="M40.7388 76.8126C37.8372 77.0927 36.2602 76.4484 35.4402 74.6556C34.7463 73.1709 35.2825 71.462 36.7333 70.4256C38.1841 69.4171 40.2342 69.4171 41.7481 70.4256C43.3565 71.4901 43.735 73.1148 42.7888 75.2999C44.7127 74.4875 46.6366 74.2634 48.5605 74.8797C50.516 75.496 51.9037 76.6725 52.7237 78.3813C53.9222 80.9586 52.9444 84.04 50.3898 85.6648C47.7089 87.3736 44.2081 87.2616 41.685 85.3287C39.0041 83.2837 38.6887 80.4263 40.7388 76.8126Z" fill="white"/>
<path d="M59.5361 66.2237C59.5361 67.4283 58.4953 68.3247 57.1391 68.3247C55.7829 68.3247 54.7106 67.3722 54.7421 66.1957C54.7421 65.0191 55.846 64.0667 57.1707 64.0667C58.4953 64.0667 59.5676 65.0191 59.5676 66.2237H59.5361Z" fill="white"/>
</svg>
